<?xml version="1.0" encoding="UTF-8"?>
<svg version="1.1" xmlns="http://www.w3.org/2000/svg" width="500" height="500">
<path d="M0 0 C1.20977005 -0.00571014 2.4195401 -0.01142029 3.66596985 -0.01730347 C4.97990723 -0.01842133 6.2938446 -0.01953918 7.64759827 -0.02069092 C9.05582813 -0.02532401 10.46405675 -0.03034933 11.87228394 -0.03573608 C15.68632614 -0.04881101 19.50035078 -0.05529491 23.31441188 -0.05974674 C25.69950453 -0.06268419 28.08459244 -0.06679016 30.46968269 -0.07125092 C37.93890673 -0.08491021 45.40811986 -0.09458567 52.87735552 -0.09845281 C61.48764153 -0.10293593 70.09776899 -0.12050214 78.7080068 -0.1494534 C85.37315346 -0.171084 92.03825553 -0.18115775 98.70343691 -0.18249393 C102.68030282 -0.18354056 106.65701936 -0.18941876 110.63384819 -0.20731354 C114.37430425 -0.22381915 118.11449901 -0.22593779 121.85497856 -0.21717453 C123.87535887 -0.21604003 125.89573061 -0.22973635 127.9160614 -0.243927 C136.22845247 -0.20575006 142.33506501 0.38163385 148.67127991 6.20294189 C149.32999084 6.80493408 149.98870178 7.40692627 150.66737366 8.02716064 C154.08957334 11.32735678 157.43693146 14.69885727 160.75721741 18.10137939 C162.68974037 20.1817028 162.68974037 20.1817028 164.85877991 21.14044189 C164.85877991 21.80044189 164.85877991 22.46044189 164.85877991 23.14044189 C165.51877991 23.14044189 166.17877991 23.14044189 166.85877991 23.14044189 C166.85877991 23.80044189 166.85877991 24.46044189 166.85877991 25.14044189 C167.51877991 25.14044189 168.17877991 25.14044189 168.85877991 25.14044189 C168.85877991 25.80044189 168.85877991 26.46044189 168.85877991 27.14044189 C169.41565491 27.38794189 169.97252991 27.63544189 170.54627991 27.89044189 C173.28288904 29.36969007 175.5352886 31.07511629 177.85877991 33.14044189 C177.85877991 33.80044189 177.85877991 34.46044189 177.85877991 35.14044189 C178.51877991 35.14044189 179.17877991 35.14044189 179.85877991 35.14044189 C179.85877991 35.80044189 179.85877991 36.46044189 179.85877991 37.14044189 C180.44272522 37.40083252 181.02667053 37.66122314 181.62831116 37.92950439 C189.83040225 42.38247854 197.72484734 52.87257675 201.85877991 61.14044189 C201.96086222 63.68959979 202.0021648 66.21169506 201.9992218 68.76130676 C202.00219292 69.55704178 202.00516405 70.3527768 202.0082252 71.17262501 C202.01693562 73.85404646 202.01842245 76.5354234 202.01991272 79.21685791 C202.02453939 81.13356116 202.02956385 83.05026348 202.03495789 84.96696472 C202.04810209 90.18629204 202.05453127 95.40560649 202.05896854 100.62494779 C202.06189721 103.88577463 202.06600171 107.14659795 202.07047272 110.40742302 C202.08415559 120.60934927 202.09381726 130.81126746 202.09767461 141.01320225 C202.10215154 152.7896184 202.1196792 164.56591825 202.1486752 176.34229904 C202.17030479 185.44304408 202.18037964 194.54375644 202.18171573 203.6445269 C202.18276323 209.0802637 202.18865891 214.5158913 202.20653534 219.95160103 C202.22303707 225.06925084 202.22516126 230.18670964 202.21639633 235.3043766 C202.21562697 237.1792324 202.21995531 239.05409855 202.22985458 240.92892838 C202.24261191 243.49640822 202.23667687 246.0632155 202.22627258 248.63069153 C202.23835719 249.73326061 202.23835719 249.73326061 202.25068593 250.85810381 C202.14711562 261.85082844 196.9773404 272.00463821 189.54627991 279.95294189 C178.30850513 290.44976449 165.28855021 291.58963529 150.68763733 291.56036377 C148.95210222 291.56771229 147.21657199 291.5763008 145.48104858 291.58602905 C140.78666704 291.60817238 136.09246141 291.61117931 131.39803481 291.60928154 C127.46939466 291.6091615 123.54079132 291.61773954 119.61216146 291.62605906 C110.33781573 291.64526766 101.06356 291.64818637 91.78919983 291.64141846 C82.24436614 291.6347809 72.69991922 291.65763644 63.15516394 291.69473219 C54.93997838 291.72549363 46.72491681 291.7367822 38.50967485 291.73289537 C33.61210709 291.73083437 28.71484035 291.73620632 23.8173275 291.76078796 C19.20830713 291.78315907 14.59991262 291.78109174 9.9908886 291.76086044 C8.30756894 291.75746854 6.62420629 291.76246027 4.94094467 291.77684402 C-10.46451123 291.89931517 -21.55642743 288.21061482 -32.88731384 277.48809814 C-40.29492184 269.63714204 -42.29067324 259.75731981 -42.28839111 249.31892395 C-42.2920678 248.41812998 -42.29574449 247.51733601 -42.29953259 246.58924526 C-42.31056506 243.56406873 -42.31441259 240.53892655 -42.31822205 237.51373291 C-42.32448718 235.34707022 -42.33113403 233.18040861 -42.33813477 231.01374817 C-42.35917713 223.89062244 -42.36953949 216.7674965 -42.37950134 209.64434814 C-42.38354928 207.19047471 -42.38766621 204.7366014 -42.39185143 202.2827282 C-42.41090597 190.75023403 -42.42513467 179.21774626 -42.43346339 167.68523937 C-42.44322763 154.38521333 -42.46952486 141.0853951 -42.50996429 127.78542191 C-42.54016396 117.49902221 -42.55493606 107.21267019 -42.55824441 96.92622703 C-42.5605911 90.78613158 -42.56950183 84.64621424 -42.59470558 78.50616646 C-42.61805756 72.7236207 -42.62219078 66.94136944 -42.6119442 61.15878868 C-42.61145041 59.04372297 -42.61772417 56.92864242 -42.63150024 54.81362152 C-42.74139785 36.9312524 -41.18761741 24.47519898 -28.19590759 11.14434814 C-19.98293906 3.41351744 -11.22369801 0.03187936 0 0 Z " fill="#F0F3F6" transform="translate(169.14122009277344,78.85955810546875)"/>
<path d="M0 0 C1.20977005 -0.00571014 2.4195401 -0.01142029 3.66596985 -0.01730347 C4.97990723 -0.01842133 6.2938446 -0.01953918 7.64759827 -0.02069092 C9.05582813 -0.02532401 10.46405675 -0.03034933 11.87228394 -0.03573608 C15.68632614 -0.04881101 19.50035078 -0.05529491 23.31441188 -0.05974674 C25.69950453 -0.06268419 28.08459244 -0.06679016 30.46968269 -0.07125092 C37.93890673 -0.08491021 45.40811986 -0.09458567 52.87735552 -0.09845281 C61.48764153 -0.10293593 70.09776899 -0.12050214 78.7080068 -0.1494534 C85.37315346 -0.171084 92.03825553 -0.18115775 98.70343691 -0.18249393 C102.68030282 -0.18354056 106.65701936 -0.18941876 110.63384819 -0.20731354 C114.37430425 -0.22381915 118.11449901 -0.22593779 121.85497856 -0.21717453 C123.87535887 -0.21604003 125.89573061 -0.22973635 127.9160614 -0.243927 C136.22845247 -0.20575006 142.33506501 0.38163385 148.67127991 6.20294189 C149.32999084 6.80493408 149.98870178 7.40692627 150.66737366 8.02716064 C154.08957334 11.32735678 157.43693146 14.69885727 160.75721741 18.10137939 C162.68974037 20.1817028 162.68974037 20.1817028 164.85877991 21.14044189 C164.85877991 21.80044189 164.85877991 22.46044189 164.85877991 23.14044189 C165.51877991 23.14044189 166.17877991 23.14044189 166.85877991 23.14044189 C166.85877991 23.80044189 166.85877991 24.46044189 166.85877991 25.14044189 C167.51877991 25.14044189 168.17877991 25.14044189 168.85877991 25.14044189 C168.85877991 25.80044189 168.85877991 26.46044189 168.85877991 27.14044189 C169.41565491 27.38794189 169.97252991 27.63544189 170.54627991 27.89044189 C173.28288904 29.36969007 175.5352886 31.07511629 177.85877991 33.14044189 C177.85877991 33.80044189 177.85877991 34.46044189 177.85877991 35.14044189 C178.51877991 35.14044189 179.17877991 35.14044189 179.85877991 35.14044189 C179.85877991 35.80044189 179.85877991 36.46044189 179.85877991 37.14044189 C180.44272522 37.40083252 181.02667053 37.66122314 181.62831116 37.92950439 C189.83040225 42.38247854 197.72484734 52.87257675 201.85877991 61.14044189 C201.96086222 63.68959979 202.0021648 66.21169506 201.9992218 68.76130676 C202.00219292 69.55704178 202.00516405 70.3527768 202.0082252 71.17262501 C202.01693562 73.85404646 202.01842245 76.5354234 202.01991272 79.21685791 C202.02453939 81.13356116 202.02956385 83.05026348 202.03495789 84.96696472 C202.04810209 90.18629204 202.05453127 95.40560649 202.05896854 100.62494779 C202.06189721 103.88577463 202.06600171 107.14659795 202.07047272 110.40742302 C202.08415559 120.60934927 202.09381726 130.81126746 202.09767461 141.01320225 C202.10215154 152.7896184 202.1196792 164.56591825 202.1486752 176.34229904 C202.17030479 185.44304408 202.18037964 194.54375644 202.18171573 203.6445269 C202.18276323 209.0802637 202.18865891 214.5158913 202.20653534 219.95160103 C202.22303707 225.06925084 202.22516126 230.18670964 202.21639633 235.3043766 C202.21562697 237.1792324 202.21995531 239.05409855 202.22985458 240.92892838 C202.24261191 243.49640822 202.23667687 246.0632155 202.22627258 248.63069153 C202.23835719 249.73326061 202.23835719 249.73326061 202.25068593 250.85810381 C202.14711562 261.85082844 196.9773404 272.00463821 189.54627991 279.95294189 C178.30850513 290.44976449 165.28855021 291.58963529 150.68763733 291.56036377 C148.95210222 291.56771229 147.21657199 291.5763008 145.48104858 291.58602905 C140.78666704 291.60817238 136.09246141 291.61117931 131.39803481 291.60928154 C127.46939466 291.6091615 123.54079132 291.61773954 119.61216146 291.62605906 C110.33781573 291.64526766 101.06356 291.64818637 91.78919983 291.64141846 C82.24436614 291.6347809 72.69991922 291.65763644 63.15516394 291.69473219 C54.93997838 291.72549363 46.72491681 291.7367822 38.50967485 291.73289537 C33.61210709 291.73083437 28.71484035 291.73620632 23.8173275 291.76078796 C19.20830713 291.78315907 14.59991262 291.78109174 9.9908886 291.76086044 C8.30756894 291.75746854 6.62420629 291.76246027 4.94094467 291.77684402 C-10.46451123 291.89931517 -21.55642743 288.21061482 -32.88731384 277.48809814 C-40.29492184 269.63714204 -42.29067324 259.75731981 -42.28839111 249.31892395 C-42.2920678 248.41812998 -42.29574449 247.51733601 -42.29953259 246.58924526 C-42.31056506 243.56406873 -42.31441259 240.53892655 -42.31822205 237.51373291 C-42.32448718 235.34707022 -42.33113403 233.18040861 -42.33813477 231.01374817 C-42.35917713 223.89062244 -42.36953949 216.7674965 -42.37950134 209.64434814 C-42.38354928 207.19047471 -42.38766621 204.7366014 -42.39185143 202.2827282 C-42.41090597 190.75023403 -42.42513467 179.21774626 -42.43346339 167.68523937 C-42.44322763 154.38521333 -42.46952486 141.0853951 -42.50996429 127.78542191 C-42.54016396 117.49902221 -42.55493606 107.21267019 -42.55824441 96.92622703 C-42.5605911 90.78613158 -42.56950183 84.64621424 -42.59470558 78.50616646 C-42.61805756 72.7236207 -42.62219078 66.94136944 -42.6119442 61.15878868 C-42.61145041 59.04372297 -42.61772417 56.92864242 -42.63150024 54.81362152 C-42.74139785 36.9312524 -41.18761741 24.47519898 -28.19590759 11.14434814 C-19.98293906 3.41351744 -11.22369801 0.03187936 0 0 Z M-21.45372009 22.32794189 C-22.38302157 23.57451058 -23.27910142 24.84649981 -24.14122009 26.14044189 C-24.58126059 26.74205202 -25.02130108 27.34366215 -25.47467613 27.96350288 C-30.94379005 36.86163786 -29.84199798 47.03063542 -29.78819275 57.09698486 C-29.79497486 59.22675319 -29.80388131 61.35651566 -29.81474304 63.48626709 C-29.83747482 69.25090678 -29.82872436 75.01509741 -29.81284761 80.77974463 C-29.8001537 86.82529214 -29.81193873 92.87080223 -29.81977844 98.91635132 C-29.8288662 109.06940584 -29.81691134 119.22227832 -29.79307556 129.37530518 C-29.76588081 141.09403176 -29.77467026 152.81232313 -29.80220759 164.53103912 C-29.82493993 174.61036352 -29.8280781 184.68955732 -29.81501424 194.76889908 C-29.80724057 200.78087943 -29.80612052 206.79265562 -29.82269669 212.80462265 C-29.8372016 218.4601439 -29.82700952 224.11510748 -29.7982254 229.77056885 C-29.79164612 231.83927614 -29.79345778 233.90803082 -29.80453873 235.9767189 C-29.87327355 250.11890515 -29.18719753 261.81014099 -18.69200134 272.42169189 C-9.42801285 278.66388935 -0.06088029 278.72659449 10.70033264 278.6897583 C12.3883809 278.6984663 14.07642127 278.70883716 15.76445007 278.72073364 C20.32445845 278.7473868 24.88413402 278.74868551 29.44420505 278.74360704 C33.26116099 278.74145926 37.07805073 278.75125545 40.89499241 278.76081789 C49.90421275 278.78296367 58.91326627 278.78390776 67.92250061 278.77178955 C77.19536693 278.759708 86.46762646 278.78434647 95.74038929 278.82692969 C103.72290153 278.86223038 111.70522121 278.87415381 119.68780857 278.8676542 C124.44620955 278.86403954 129.20417746 278.8691895 133.96250725 278.89708328 C138.43868324 278.92234445 142.91391698 278.91825602 147.3900795 278.89226151 C149.02544164 278.88755351 150.6608712 278.89291472 152.29615593 278.90950775 C162.14577789 279.00218606 169.55452574 278.04332236 177.85877991 272.14044189 C177.85877991 271.48044189 177.85877991 270.82044189 177.85877991 270.14044189 C178.46463928 269.89809814 179.07049866 269.65575439 179.69471741 269.40606689 C182.30655955 267.87856355 183.08260488 266.54815453 184.48377991 263.89044189 C184.88854553 263.14278564 185.29331116 262.39512939 185.71034241 261.62481689 C188.24915647 256.13268852 189.14868931 251.34140316 189.09928894 245.31967163 C189.10099779 244.55092079 189.10270664 243.78216995 189.10446727 242.99012363 C189.1077511 240.42441103 189.09677683 237.85896227 189.08583069 235.29327393 C189.08526634 233.45004787 189.08558361 231.60682137 189.0867157 229.76359558 C189.08728927 224.76613691 189.07553419 219.76877434 189.06156778 214.77133799 C189.0490612 209.54630426 189.04788998 204.32126831 189.04551697 199.09622192 C189.039302 189.20472084 189.02289091 179.31326399 189.00281799 169.42178237 C188.98045955 158.15946951 188.96946569 146.89715453 188.95942712 135.63482499 C188.93852472 112.47000611 188.90334838 89.30522648 188.85877991 66.14044189 C188.19114624 66.13679626 187.52351257 66.13315063 186.83564758 66.12939453 C179.89248227 66.08761359 172.94998071 66.01829864 166.00721741 65.93292236 C163.41548803 65.90468082 160.82367202 65.88348224 158.23182678 65.8694458 C154.50806719 65.84806127 150.7853529 65.80143104 147.06190491 65.74981689 C145.90136597 65.74858826 144.74082703 65.74735962 143.54512024 65.74609375 C142.46430176 65.72637512 141.38348328 65.70665649 140.26991272 65.68634033 C139.31949097 65.67745789 138.36906921 65.66857544 137.3898468 65.65942383 C134.1312111 64.99125774 132.9462659 63.6717154 130.85877991 61.14044189 C129.69452015 58.81192238 129.70419998 57.37764005 129.65345764 54.78253174 C129.63351242 53.88174896 129.6135672 52.98096619 129.59301758 52.05288696 C129.56794884 50.59189072 129.56794884 50.59189072 129.54237366 49.10137939 C129.52159256 48.10538727 129.50081146 47.10939514 129.47940063 46.08322144 C129.41388949 42.89403336 129.35501286 39.70476132 129.29627991 36.51544189 C129.25309618 34.35657896 129.20948194 32.19772459 129.16542053 30.03887939 C129.05820654 24.7394896 128.95644306 19.44001584 128.85877991 14.14044189 C111.16897288 14.02344043 93.4792668 13.93537168 75.78915596 13.88138103 C67.57460185 13.85564157 59.36028869 13.82057308 51.14588928 13.76324463 C43.98298438 13.71327857 36.82025406 13.68111995 29.65717971 13.66999942 C25.86720714 13.66350282 22.07773384 13.64832444 18.28792191 13.61179161 C14.71404852 13.57762247 11.1408757 13.56743036 7.56685448 13.57490349 C5.64353835 13.57289165 3.72029693 13.54610648 1.79718018 13.51834106 C-7.35770972 13.57228472 -15.03000889 15.43576725 -21.45372009 22.32794189 Z " fill="#24363E" transform="translate(169.14122009277344,78.85955810546875)"/>
<path d="M0 0 C1.41732422 -0.00483398 1.41732422 -0.00483398 2.86328125 -0.00976562 C9.84857694 0.04488463 9.84857694 0.04488463 13.25 2.3125 C12.62372088 6.38331429 10.88955836 9.18803874 8.25 12.3125 C5.37522766 12.85876778 3.2358224 13.06561519 0.375 13 C-8.33490753 12.94344216 -13.55521583 15.58416512 -19.921875 21.35546875 C-26.64091494 28.54828715 -28.10992302 38.25904326 -28.125 47.75 C-28.14949219 48.55759766 -28.17398437 49.36519531 -28.19921875 50.19726562 C-28.24429575 59.52069122 -24.1010496 65.62479707 -17.90625 72.328125 C-10.74744413 78.91630142 -2.75667963 79.6660216 6.62890625 79.59765625 C13.66693346 79.0434211 20.27805187 76.42650379 25.25 71.3125 C30.70393755 63.73758674 33.4792269 56.70545132 33.13671875 47.2734375 C33.10642578 46.36335938 33.07613281 45.45328125 33.04492188 44.515625 C32.97297914 42.62156891 32.88164774 40.72815532 32.77148438 38.8359375 C32.70237067 36.20588071 32.70897565 33.88820918 33.25 31.3125 C36.01953125 28.6015625 36.01953125 28.6015625 39.25 27.3125 C41.31323242 27.48535156 41.31323242 27.48535156 43.25 28.3125 C47.34125421 33.94837875 47.90023147 40.44529363 47.75 47.1875 C47.73718994 48.06591553 47.72437988 48.94433105 47.71118164 49.84936523 C47.29332748 63.25169652 41.13004983 75.49850073 31.34765625 84.74609375 C19.47643747 93.61082137 7.49778647 94.33437564 -6.75 93.3125 C-14.25407624 91.86782086 -20.07352576 88.32470598 -25.75 83.3125 C-26.35585938 82.78785156 -26.96171875 82.26320313 -27.5859375 81.72265625 C-36.04267938 73.87524294 -41.24678538 63.83221774 -41.85693359 52.28955078 C-41.9191657 50.15025987 -41.93557367 48.01515284 -41.9375 45.875 C-41.94974609 45.16279297 -41.96199219 44.45058594 -41.97460938 43.71679688 C-42.01111034 30.32094278 -35.92393455 18.84878026 -26.75 9.3125 C-18.2797752 2.38761742 -10.80851982 -0.18738765 0 0 Z " fill="#24353D" transform="translate(285.75,222.6875)"/>
<path d="M0 0 C0.99265869 -0.00701431 1.98531738 -0.01402863 3.00805664 -0.02125549 C4.09594482 -0.01361176 5.18383301 -0.00596802 6.3046875 0.00190735 C7.45122803 -0.00174332 8.59776855 -0.00539398 9.77905273 -0.00915527 C13.57941371 -0.0172795 17.37935081 -0.00363464 21.1796875 0.01094055 C23.81380208 0.01145893 26.44791705 0.01094209 29.08203125 0.00942993 C34.60682259 0.00854688 40.13149125 0.01962952 45.65625 0.03804016 C52.04501824 0.05920802 58.43360675 0.06271776 64.82240295 0.0564782 C70.9664273 0.05078475 77.11037813 0.05653422 83.25439453 0.06765175 C85.86995183 0.07150903 88.48551455 0.07264979 91.10107422 0.0710659 C94.75238445 0.07069626 98.40341861 0.08328734 102.0546875 0.0995636 C103.68651978 0.09584747 103.68651978 0.09584747 105.35131836 0.09205627 C106.34397705 0.09914108 107.33663574 0.10622589 108.359375 0.11352539 C109.65464111 0.1166047 109.65464111 0.1166047 110.97607422 0.11974621 C113.1796875 0.3742218 113.1796875 0.3742218 116.1796875 2.3742218 C117.0546875 4.6867218 117.0546875 4.6867218 117.1796875 7.3742218 C116.0380956 9.6574056 114.98956067 11.56434863 113.1796875 13.3742218 C111.67079855 13.47866406 110.15705748 13.51384794 108.64457703 13.52139282 C107.66452698 13.52854813 106.68447693 13.53570343 105.67472839 13.54307556 C104.04849297 13.54710892 104.04849297 13.54710892 102.3894043 13.55122375 C100.68707138 13.56108055 100.68707138 13.56108055 98.9503479 13.57113647 C95.17653344 13.59092573 91.40275886 13.60254419 87.62890625 13.61250305 C86.34400614 13.61657858 85.05910603 13.62065411 83.73526955 13.62485313 C77.63771679 13.64358075 71.54018416 13.65814142 65.44260854 13.6664651 C58.39938367 13.67623773 51.35647307 13.70255427 44.31335896 13.742966 C38.21740893 13.77674486 32.1215912 13.78860854 26.02555275 13.7926693 C23.4303353 13.79755367 20.83512164 13.80921978 18.23996544 13.82770729 C14.61243789 13.85194399 10.98573729 13.85116166 7.3581543 13.8441925 C6.28007004 13.85700256 5.20198578 13.86981262 4.0912323 13.88301086 C-3.15481435 13.83211077 -3.15481435 13.83211077 -6.49162292 11.53625488 C-8.29489541 8.60198427 -8.32392579 6.75562531 -7.8203125 3.3742218 C-5.52463297 0.26568375 -3.76836078 -0.00073203 0 0 Z " fill="#22343C" transform="translate(175.8203125,157.6257781982422)"/>
<path d="M0 0 C0.98279938 -0.00845947 1.96559875 -0.01691895 2.97817993 -0.02563477 C4.59362953 -0.01652573 4.59362953 -0.01652573 6.24171448 -0.00723267 C7.37689514 -0.01248962 8.51207581 -0.01774658 9.68165588 -0.02316284 C13.44473415 -0.03639708 17.20739146 -0.02761172 20.97047424 -0.01748657 C23.57977378 -0.01950645 26.18907276 -0.02241717 28.79837036 -0.02618408 C34.27188193 -0.03164345 39.74527211 -0.02444619 45.21876526 -0.01016235 C51.54507799 0.00615649 57.87110056 0.00088217 64.19740623 -0.01564157 C70.28377404 -0.03090193 76.37001331 -0.02927874 82.45639229 -0.02049637 C85.0460063 -0.01849224 87.63562769 -0.02096104 90.22523308 -0.02793503 C93.84290662 -0.03553824 97.46002022 -0.02395989 101.07765198 -0.00723267 C102.15259415 -0.01330536 103.22753632 -0.01937805 104.33505249 -0.02563477 C105.32067169 -0.01717529 106.30629089 -0.00871582 107.32177734 0 C108.17699195 0.00113108 109.03220655 0.00226215 109.91333675 0.00342751 C112.78574685 0.47265363 114.15698782 1.34939253 116.22438049 3.38095093 C116.72438049 6.88095093 116.72438049 6.88095093 116.22438049 10.38095093 C113.36010271 13.19488356 111.27433208 13.75740071 107.32177734 13.76863098 C106.33615814 13.77853561 105.35053894 13.78844025 104.33505249 13.79864502 C103.26011032 13.79414337 102.18516815 13.78964172 101.07765198 13.78500366 C99.94071899 13.79186691 98.80378601 13.79873016 97.63240051 13.80580139 C93.86996517 13.82412064 90.10794466 13.82022507 86.34547424 13.81454468 C83.73520776 13.81910337 81.12494248 13.824408 78.51467896 13.83042908 C73.04295368 13.8404581 67.57134661 13.83715839 62.09962463 13.82699585 C55.77264246 13.81550461 49.44608366 13.82960737 43.11915725 13.85639232 C37.03223853 13.88119706 30.94551557 13.88373196 24.85855293 13.87727547 C22.26810565 13.8771217 19.67765041 13.88321118 17.08723259 13.89556694 C13.4717357 13.91038393 9.85718113 13.89986802 6.24171448 13.88265991 C5.16474808 13.89232788 4.08778168 13.90199585 2.97817993 13.91195679 C1.99538055 13.90212265 1.01258118 13.89228851 0 13.88215637 C-1.28225637 13.88184245 -1.28225637 13.88184245 -2.59041691 13.88152218 C-4.77561951 13.38095093 -4.77561951 13.38095093 -6.55065823 11.54103184 C-8.20447074 8.6247202 -8.19690623 6.68103029 -7.77561951 3.38095093 C-5.4934389 0.28866741 -3.74846394 0.00495977 0 0 Z " fill="#293A40" transform="translate(175.77561950683594,189.61904907226563)"/>
<path d="M0 0 C3.625 0.25 3.625 0.25 5.5625 1.3125 C7.22719571 4.34812159 6.89615406 6.844305 6.625 10.25 C5.1484375 12.70703125 5.1484375 12.70703125 3 15.0625 C2.18402344 15.99578125 1.36804688 16.9290625 0.52734375 17.890625 C0.06827637 18.41333984 -0.39079102 18.93605469 -0.86376953 19.47460938 C-3.85076523 22.98372613 -6.62634438 26.6622775 -9.4375 30.3125 C-13.08869128 35.03039106 -16.74348804 39.74013869 -20.5 44.375 C-22.86678034 47.30017657 -25.14696768 50.27512251 -27.3828125 53.30078125 C-27.9176123 54.02313965 -28.45241211 54.74549805 -29.00341797 55.48974609 C-30.06239973 56.9249996 -31.11635008 58.36398294 -32.16455078 59.80712891 C-37.25413976 66.70829504 -37.25413976 66.70829504 -40.375 68.25 C-43.22985464 68.37868293 -44.74692844 67.78041108 -46.92626953 65.93994141 C-48.66582191 64.20142479 -50.30679298 62.4033787 -51.9375 60.5625 C-52.50146484 59.94955078 -53.06542969 59.33660156 -53.64648438 58.70507812 C-62.07931005 49.4043125 -62.07931005 49.4043125 -62.8125 44.0625 C-62.375 41.25 -62.375 41.25 -61.375 39.375 C-58.04290338 37.50069565 -54.99712221 37.33804725 -51.375 38.25 C-47.66146422 40.59336913 -44.03912942 43.19658364 -42.65234375 47.484375 C-42.56082031 48.06703125 -42.46929687 48.6496875 -42.375 49.25 C-41.715 49.25 -41.055 49.25 -40.375 49.25 C-40.148125 48.72535156 -39.92125 48.20070313 -39.6875 47.66015625 C-37.91717697 44.4092952 -35.65773727 41.58657633 -33.375 38.6875 C-30.95388121 35.59192668 -28.5568227 32.52273406 -26.375 29.25 C-25.715 29.25 -25.055 29.25 -24.375 29.25 C-24.04048828 28.22132813 -24.04048828 28.22132813 -23.69921875 27.171875 C-22.02184045 23.4707571 -19.73997516 20.63725673 -17.1875 17.5 C-16.19641594 16.26187773 -15.20553071 15.02359628 -14.21484375 13.78515625 C-13.48950439 12.88434326 -13.48950439 12.88434326 -12.74951172 11.96533203 C-10.88911685 9.64363855 -9.06812716 7.29237155 -7.25 4.9375 C-3.64360794 0.26989688 -3.64360794 0.26989688 0 0 Z " fill="#1F3238" transform="translate(326.375,211.75)"/>
<path d="M0 0 C0.82293045 -0.00845947 1.6458609 -0.01691895 2.49372864 -0.02563477 C3.39303101 -0.01956207 4.29233337 -0.01348938 5.21888733 -0.00723267 C6.16875015 -0.01248962 7.11861298 -0.01774658 8.09725952 -0.02316284 C11.24351854 -0.03638841 14.38927336 -0.02761488 17.53553772 -0.01748657 C19.71885272 -0.01950674 21.90216705 -0.02241769 24.08547974 -0.02618408 C28.6645194 -0.03061105 33.24338366 -0.02416493 37.82240295 -0.01016235 C43.69499921 0.00691949 49.56718387 -0.00290316 55.43976498 -0.02087975 C59.94959621 -0.03171608 64.45932974 -0.02827172 68.96916389 -0.02049637 C71.13453279 -0.01849343 73.29991051 -0.02095692 75.46526909 -0.02793503 C78.49145396 -0.03554575 81.51697099 -0.02394979 84.54310608 -0.00723267 C85.44038422 -0.01330536 86.33766235 -0.01937805 87.26213074 -0.02563477 C93.30625003 0.03628476 93.30625003 0.03628476 96.49819946 1.7567749 C97.94569397 3.38095093 97.94569397 3.38095093 98.50819397 5.75595093 C97.67464527 9.64584487 96.07111889 10.94810179 92.94569397 13.38095093 C89.80923266 14.11153997 86.74652787 14.06471908 83.5372467 14.02792358 C82.12664474 14.04106598 82.12664474 14.04106598 80.68754578 14.05447388 C77.58432146 14.0764506 74.48252608 14.06192202 71.37928772 14.04501343 C69.22124966 14.04838176 67.06321345 14.05323452 64.90518188 14.05950928 C60.38505469 14.06687805 55.86542187 14.05617346 51.34535217 14.0328064 C45.5487842 14.00430202 39.75337284 14.0207338 33.95684719 14.05066872 C29.50186428 14.06872669 25.04715613 14.06299075 20.59216499 14.05002975 C18.45470607 14.0466925 16.31722227 14.050794 14.1797924 14.06242752 C11.19410368 14.07511303 8.21029518 14.05579148 5.2247467 14.02792358 C3.89756874 14.04310532 3.89756874 14.04310532 2.5435791 14.05859375 C-3.42993806 13.95518436 -3.42993806 13.95518436 -6.63815308 11.00457764 C-8.05430603 8.38095093 -8.05430603 8.38095093 -7.99180603 5.75595093 C-6.35329134 1.60504704 -4.47464352 0.00708128 0 0 Z " fill="#22343B" transform="translate(175.05430603027344,124.61904907226563)"/>
<path d="M0 0 C0.98544548 -0.0098568 0.98544548 -0.0098568 1.99079895 -0.01991272 C4.17379865 -0.0396888 6.35672939 -0.05131846 8.53979492 -0.0612793 C9.28409948 -0.06535482 10.02840405 -0.06943035 10.79526329 -0.07362938 C14.73557638 -0.09450968 18.67585444 -0.10880219 22.61621094 -0.11816406 C26.6886384 -0.12922575 30.76051901 -0.16361653 34.83275318 -0.20333576 C37.96145143 -0.22947285 41.09001893 -0.23785332 44.21881676 -0.24144554 C45.71994401 -0.24632002 47.22106509 -0.25795859 48.72208595 -0.27648354 C50.82427945 -0.30081252 52.9250528 -0.29992241 55.02734375 -0.29296875 C56.22345779 -0.29883499 57.41957184 -0.30470123 58.65193176 -0.31074524 C62.28078449 0.2684629 63.44381562 1.35774713 65.70776367 4.17700195 C64.52399247 7.54619691 63.60506384 10.01957372 60.70776367 12.17700195 C57.86157227 12.56468201 57.86157227 12.56468201 54.35620117 12.58105469 C52.38901123 12.60008095 52.38901123 12.60008095 50.38208008 12.61949158 C48.94897301 12.61744029 47.51586702 12.61445239 46.08276367 12.6105957 C44.61449949 12.61515598 43.14623744 12.6204611 41.67797852 12.6264801 C38.60123013 12.63541588 35.52474124 12.63298258 32.44799805 12.62304688 C28.50323333 12.61154996 24.5593628 12.63177613 20.61471558 12.66096401 C17.58294986 12.67930022 14.55139952 12.67903892 11.51959229 12.67332649 C10.06511174 12.67317299 8.61061686 12.67924104 7.15618896 12.69161797 C5.12395113 12.70647636 3.09156633 12.69324767 1.05932617 12.67871094 C-0.09744629 12.67854477 -1.25421875 12.6783786 -2.44604492 12.6782074 C-5.29223633 12.17700195 -5.29223633 12.17700195 -7.20483398 10.37611389 C-8.82437738 7.10082464 -8.07949016 4.65403973 -7.29223633 1.17700195 C-5.45016394 -0.66507043 -2.46888612 0.02035995 0 0 Z " fill="#203139" transform="translate(176.292236328125,221.822998046875)"/>
<path d="M0 0 C0.54839539 0.32342377 1.09679077 0.64684753 1.6618042 0.98007202 C4.40836491 2.17812999 6.41934171 2.27690666 9.41113281 2.31884766 C10.50699707 2.33890869 11.60286133 2.35896973 12.73193359 2.37963867 C13.87742676 2.39099854 15.02291992 2.4023584 16.203125 2.4140625 C17.26063965 2.43170654 18.3181543 2.44935059 19.40771484 2.4675293 C23.35498904 2.5305568 27.30251725 2.57677077 31.25 2.625 C44.49125 2.810625 44.49125 2.810625 58 3 C58 36.99 58 70.98 58 106 C57.67 106 57.34 106 57 106 C56.67 75.64 56.34 45.28 56 14 C52.04 14.66 48.08 15.32 44 16 C40.53320312 16.24291992 40.53320312 16.24291992 37.78125 16.23046875 C36.74613281 16.22853516 35.71101563 16.22660156 34.64453125 16.22460938 C33.08798828 16.20624023 33.08798828 16.20624023 31.5 16.1875 C29.94345703 16.1865332 29.94345703 16.1865332 28.35546875 16.18554688 C8.95423369 16.07682264 8.95423369 16.07682264 3.9375 13.3125 C1.6819492 10.62039099 0.21394298 8.30462256 -1 5 C-0.6875 2.125 -0.6875 2.125 0 0 Z " fill="#CED3D7" transform="translate(300,142)"/>
<path d="M0 0 C1.06152786 -0.01268417 2.12305573 -0.02536835 3.2167511 -0.03843689 C4.363629 -0.03550125 5.5105069 -0.03256561 6.69213867 -0.02954102 C8.46230598 -0.03740379 8.46230598 -0.03740379 10.26823425 -0.04542542 C12.76735649 -0.0518543 15.26650896 -0.05049749 17.765625 -0.04199219 C21.58477994 -0.03350356 25.40242927 -0.0621999 29.22143555 -0.09399414 C31.64916947 -0.09560676 34.07690605 -0.09502746 36.50463867 -0.09204102 C38.21584648 -0.10889198 38.21584648 -0.10889198 39.96162415 -0.12608337 C46.1432071 -0.07193774 50.18199904 0.08420853 54.79760742 4.40405273 C55.42260742 6.90405273 55.42260742 6.90405273 54.79760742 9.40405273 C52.74705513 11.95716854 51.55032435 13.25096244 48.30018616 13.9119873 C47.36484543 13.91516968 46.4295047 13.91835205 45.46582031 13.92163086 C43.86880028 13.94054382 43.86880028 13.94054382 42.23951721 13.95983887 C41.09466354 13.95174194 39.94980988 13.94364502 38.77026367 13.93530273 C37.5891954 13.93912964 36.40812714 13.94295654 35.19126892 13.94689941 C32.6939102 13.94962103 30.19652308 13.94224256 27.69921875 13.92553711 C23.87785158 13.90415203 20.05836877 13.92532268 16.23706055 13.95092773 C13.81062411 13.94828413 11.38418884 13.94315849 8.95776367 13.93530273 C7.81493423 13.94339966 6.6721048 13.95149658 5.49464417 13.95983887 C-2.39130743 13.86672391 -2.39130743 13.86672391 -6.43115234 11.56225586 C-8.20239258 9.40405273 -8.20239258 9.40405273 -8.70239258 6.34155273 C-7.77897572 0.91647872 -5.20758799 0.03010718 0 0 Z " fill="#1F3139" transform="translate(176.202392578125,285.595947265625)"/>
<path d="M0 0 C1.11132797 -0.00960754 2.22265594 -0.01921509 3.36766052 -0.02911377 C4.57285843 -0.03336365 5.77805634 -0.03761353 7.01977539 -0.04199219 C8.25280899 -0.04769226 9.48584259 -0.05339233 10.75624084 -0.05926514 C13.36808409 -0.06872448 15.97993933 -0.07525281 18.59179688 -0.07910156 C21.27390047 -0.08349939 23.95568473 -0.09743875 26.63769531 -0.12011719 C30.4943221 -0.15047499 34.35054267 -0.16113776 38.20727539 -0.16699219 C39.41044907 -0.17933899 40.61362274 -0.19168579 41.85325623 -0.20440674 C42.96773636 -0.20140564 44.08221649 -0.19840454 45.23046875 -0.1953125 C46.21260849 -0.19895813 47.19474823 -0.20260376 48.20664978 -0.20635986 C50.67993164 0.16113281 50.67993164 0.16113281 52.52442932 1.53106689 C53.67993164 3.16113281 53.67993164 3.16113281 53.61743164 5.59863281 C52.47707671 8.71560295 51.23811046 10.0574049 48.67993164 12.16113281 C46.16905212 12.66906738 46.16905212 12.66906738 43.31640625 12.67871094 C42.24527084 12.69131958 41.17413544 12.70392822 40.07054138 12.71691895 C38.9194136 12.70882202 37.76828583 12.7007251 36.58227539 12.69238281 C35.39646378 12.69620972 34.21065216 12.70003662 32.98890686 12.70397949 C30.48315583 12.7067007 27.97737649 12.69932505 25.47167969 12.68261719 C21.62834648 12.66119365 17.78687883 12.6824237 13.94360352 12.70800781 C11.51065667 12.70536495 9.07771098 12.70024083 6.64477539 12.69238281 C4.91504738 12.7045282 4.91504738 12.7045282 3.15037537 12.71691895 C2.08239212 12.7043103 1.01440887 12.69170166 -0.0859375 12.67871094 C-1.02651505 12.67552856 -1.96709259 12.67234619 -2.93617249 12.66906738 C-5.32006836 12.16113281 -5.32006836 12.16113281 -7.15892029 10.35925293 C-8.89885813 7.06545048 -8.18464136 4.68593041 -7.32006836 1.16113281 C-4.74657147 -0.12561563 -2.88163577 0.02004986 0 0 Z " fill="#1B2D36" transform="translate(176.320068359375,253.8388671875)"/>
<path d="M0 0 C7.76785714 -0.66964286 7.76785714 -0.66964286 11.5 2.375 C14 5 14 5 14 7 C14.66 7 15.32 7 16 7 C16 7.66 16 8.32 16 9 C16.66 9 17.32 9 18 9 C18 9.66 18 10.32 18 11 C18.8353125 11.37125 18.8353125 11.37125 19.6875 11.75 C22.42410913 13.22924818 24.67650869 14.93467439 27 17 C27 17.66 27 18.32 27 19 C27.66 19 28.32 19 29 19 C29 19.66 29 20.32 29 21 C29.598125 21.268125 30.19625 21.53625 30.8125 21.8125 C33.04593283 23.02493496 34.49938199 23.94652273 36 26 C35.5681225 32.26222373 31.18805413 36.81194587 27 41 C26.34 40.34 25.68 39.68 25 39 C25 37.68 25 36.36 25 35 C23.71541396 33.23992744 23.71541396 33.23992744 21.89453125 31.6875 C21.24033203 31.08679688 20.58613281 30.48609375 19.91210938 29.8671875 C19.21923828 29.25101563 18.52636719 28.63484375 17.8125 28 C17.13896484 27.38382813 16.46542969 26.76765625 15.77148438 26.1328125 C12.91857933 23.5387564 10.06286421 21.04864786 7.01171875 18.6875 C6.34785156 18.130625 5.68398438 17.57375 5 17 C5 16.34 5 15.68 5 15 C4.34 15 3.68 15 3 15 C3 14.34 3 13.68 3 13 C2.195625 12.690625 2.195625 12.690625 1.375 12.375 C-2.0017654 10.42003056 -4.30474839 7.81776305 -7 5 C-6 3 -6 3 -4 2 C-3.01 2 -2.02 2 -1 2 C-0.67 1.34 -0.34 0.68 0 0 Z " fill="#1E2E36" transform="translate(320,95)"/>
<path d="M0 0 C2.31 1.98 4.62 3.96 7 6 C7.804375 6.5775 8.60875 7.155 9.4375 7.75 C9.953125 8.1625 10.46875 8.575 11 9 C11 9.66 11 10.32 11 11 C11.66 11 12.32 11 13 11 C13 11.66 13 12.32 13 13 C13.55945313 13.23074219 14.11890625 13.46148437 14.6953125 13.69921875 C17.60635895 15.3422331 19.55849077 17.40578403 21.875 19.8125 C24.69321031 22.70158246 27.46148266 25.49178268 30.625 28 C31.40875 28.66 32.1925 29.32 33 30 C33 30.66 33 31.32 33 32 C22.11 32 11.22 32 0 32 C0 21.44 0 10.88 0 0 Z " fill="#F1F5F9" transform="translate(312,99)"/>
<path d="M0 0 C1.32 0.66 2.64 1.32 4 2 C4.35658201 5.20923805 4.3491796 6.55380277 2.3225708 9.14349365 C-0.50953636 11.40728897 -1.82555873 11.4876116 -5.41113281 11.45410156 C-6.49195129 11.45379944 -7.57276978 11.45349731 -8.68634033 11.45318604 C-9.84687927 11.43254089 -11.00741821 11.41189575 -12.203125 11.390625 C-13.39605164 11.38496521 -14.58897827 11.37930542 -15.8180542 11.37347412 C-19.62911056 11.35107926 -23.43922767 11.30087429 -27.25 11.25 C-29.83331976 11.22993915 -32.41665425 11.21168766 -35 11.1953125 C-41.33365394 11.15120411 -47.66675987 11.08425978 -54 11 C-54 10.67 -54 10.34 -54 10 C-28.755 9.505 -28.755 9.505 -3 9 C-2.01 6.03 -1.02 3.06 0 0 Z " fill="#415056" transform="translate(227,288)"/>
<path d="M0 0 C0.99 0.66 1.98 1.32 3 2 C2.51833752 6.33496235 1.38543465 8.25700525 -2 11 C-4.53106689 11.48101807 -4.53106689 11.48101807 -7.41113281 11.45410156 C-8.49195129 11.45379944 -9.57276978 11.45349731 -10.68634033 11.45318604 C-11.84687927 11.43254089 -13.00741821 11.41189575 -14.203125 11.390625 C-15.39605164 11.38496521 -16.58897827 11.37930542 -17.8180542 11.37347412 C-21.62911056 11.35107926 -25.43922767 11.30087429 -29.25 11.25 C-31.83331976 11.22993915 -34.41665425 11.21168766 -37 11.1953125 C-43.33365394 11.15120411 -49.66675987 11.08425978 -56 11 C-56 10.67 -56 10.34 -56 10 C-38.51 9.67 -21.02 9.34 -3 9 C0.13130643 2.96291384 0.13130643 2.96291384 0 0 Z " fill="#3F4D54" transform="translate(227,255)"/>
<path d="M0 0 C0.66 0.33 1.32 0.66 2 1 C-0.51407619 5.28324091 -2.12314139 7.64531705 -7 9 C-7 9.99 -7 10.98 -7 12 C-7.57668317 14.69290446 -8.30097568 17.3349698 -9 20 C-9.33 20 -9.66 20 -10 20 C-10 17.69 -10 15.38 -10 13 C-10.66 12.67 -11.32 12.34 -12 12 C-10.75479583 10.55834372 -9.50362077 9.12184348 -8.25 7.6875 C-7.55390625 6.88699219 -6.8578125 6.08648437 -6.140625 5.26171875 C-4.20854665 3.22034399 -2.30056874 1.60107149 0 0 Z " fill="#D5DBE3" transform="translate(273,237)"/>
<path d="M0 0 C1.12894876 0.93274109 2.25300876 1.87140122 3.375 2.8125 C4.00148438 3.33457031 4.62796875 3.85664062 5.2734375 4.39453125 C7 6 7 6 9 9 C9 9.99 9 10.98 9 12 C6.625 11.75 6.625 11.75 4 11 C2.2058242 8.43689172 2 7.16880694 2 4 C1.34 4 0.68 4 0 4 C0 2.68 0 1.36 0 0 Z " fill="#D8DFE6" transform="translate(326,112)"/>
<path d="M0 0 C3 1 3 1 3.875 2.75 C4.05153802 5.92768438 2.84259262 7.47496567 1 10 C-2.21451269 11.60725635 -5.43612536 11.05748185 -9 11 C-7.1875 9.9375 -7.1875 9.9375 -5 9 C-4.01 9.33 -3.02 9.66 -2 10 C-1.66376204 8.7090864 -1.33110751 7.41723903 -1 6.125 C-0.814375 5.40570313 -0.62875 4.68640625 -0.4375 3.9453125 C0.07313965 2.00710683 0.07313965 2.00710683 0 0 Z " fill="#30414A" transform="translate(238,223)"/>
<path d="M0 0 C0.33 0 0.66 0 1 0 C1.59278659 3.98013851 1.62636203 5.98497231 -0.5234375 9.46875 C-2.27737817 11.73097552 -4.03313068 13.91992957 -6 16 C-6.33 16 -6.66 16 -7 16 C-7.25 13.6875 -7.25 13.6875 -7 11 C-5.125 9.4375 -5.125 9.4375 -3 8 C-1.4246328 5.42966404 -0.62963273 2.93828608 0 0 Z " fill="#303E46" transform="translate(332,215)"/>
<path d="M0 0 C3.78496138 1.51398455 4.0072198 2.0144396 6 6 C3.03 6 0.06 6 -3 6 C-2.01 4.02 -1.02 2.04 0 0 Z " fill="#E1EAEE" transform="translate(339,125)"/>
<path d="M0 0 C1.76094117 1.02156019 3.47187493 2.12809491 5.17578125 3.2421875 C5.17578125 4.2321875 5.17578125 5.2221875 5.17578125 6.2421875 C1.12296413 5.01691721 -2.26782639 3.54338256 -5.82421875 1.2421875 C-3.71823965 -0.44259578 -2.55921503 -1.06314286 0 0 Z " fill="#3C474C" transform="translate(149.82421875,361.7578125)"/>
<path d="M0 0 C0.66 0.33 1.32 0.66 2 1 C2 2.65 2 4.3 2 6 C0.02 6.33 -1.96 6.66 -4 7 C-4.33 7.99 -4.66 8.98 -5 10 C-5.66 9.67 -6.32 9.34 -7 9 C-4.69 6.03 -2.38 3.06 0 0 Z " fill="#303F43" transform="translate(315,222)"/>
<path d="M0 0 C0.99 0.33 1.98 0.66 3 1 C1.68775452 4.93673644 0.08089673 7.22719294 -3 10 C-3.33 7.69 -3.66 5.38 -4 3 C-3.01 3.33 -2.02 3.66 -1 4 C-0.67 2.68 -0.34 1.36 0 0 Z " fill="#404E53" transform="translate(363,346)"/>
<path d="M0 0 C2.31 0.33 4.62 0.66 7 1 C5.1875 4 5.1875 4 3 7 C2.01 7 1.02 7 0 7 C0 4.69 0 2.38 0 0 Z " fill="#263B40" transform="translate(293,262)"/>
<path d="M0 0 C0.33 0.99 0.66 1.98 1 3 C1.66 3.33 2.32 3.66 3 4 C2.34 4 1.68 4 1 4 C0.67 4.99 0.34 5.98 0 7 C-0.66 7 -1.32 7 -2 7 C-2 7.66 -2 8.32 -2 9 C-3.32 9.33 -4.64 9.66 -6 10 C-4.07119658 6.59244728 -2.1723491 3.25852365 0 0 Z " fill="#DCE4EC" transform="translate(303,258)"/>
<path d="M0 0 C0.99 1.32 1.98 2.64 3 4 C0.31158141 6.25245881 -1.64641875 7.88213958 -5 9 C-3.7508258 5.54074837 -2.32472205 2.85306797 0 0 Z " fill="#DBE3EA" transform="translate(299,226)"/>
<path d="M0 0 C3.35595828 0.59927826 5.37801226 1.84622436 8 4 C7.01 4.33 6.02 4.66 5 5 C4.01 4.34 3.02 3.68 2 3 C1.67 3.99 1.34 4.98 1 6 C0.34 5.67 -0.32 5.34 -1 5 C-0.67 3.35 -0.34 1.7 0 0 Z " fill="#333F46" transform="translate(308,80)"/>
<path d="M0 0 C0.66 0.33 1.32 0.66 2 1 C-1.625 6.875 -1.625 6.875 -5 8 C-5.66 7.34 -6.32 6.68 -7 6 C-4.69 4.02 -2.38 2.04 0 0 Z " fill="#DAE3E9" transform="translate(273,237)"/>
<path d="M0 0 C0.66 0 1.32 0 2 0 C0.49901406 3.11743233 -1.02431822 6.15501823 -3 9 C-3.99 9 -4.98 9 -6 9 C-4.4722133 5.56247993 -2.49818944 2.81046312 0 0 Z " fill="#283940" transform="translate(322,213)"/>
<path d="M0 0 C2.97 0 5.94 0 9 0 C7.02 0.99 7.02 0.99 5 2 C4.29875 2.37125 3.5975 2.7425 2.875 3.125 C1 4 1 4 -1 4 C-0.67 2.68 -0.34 1.36 0 0 Z " fill="#17282F" transform="translate(171,254)"/>
<path d="M0 0 C2.99324263 1.0975223 3.84610901 1.67682892 5.25 4.625 C5.4975 5.40875 5.745 6.1925 6 7 C0.25 5.375 0.25 5.375 -2 2 C-1.34 2 -0.68 2 0 2 C0 1.34 0 0.68 0 0 Z " fill="#D7DEE1" transform="translate(153,348)"/>
<path d="M0 0 C0.33 0.66 0.66 1.32 1 2 C1.66 2 2.32 2 3 2 C3 1.34 3 0.68 3 0 C3.66 0 4.32 0 5 0 C3.70700306 2.88437779 2.34058637 4.87219421 0 7 C0 6.01 0 5.02 0 4 C-0.66 3.67 -1.32 3.34 -2 3 C-1.34 2.01 -0.68 1.02 0 0 Z " fill="#304045" transform="translate(316,235)"/>
<path d="M0 0 C1.32 0.66 2.64 1.32 4 2 C4 2.66 4 3.32 4 4 C3.01 4.495 3.01 4.495 2 5 C2 5.99 2 6.98 2 8 C1.34 8 0.68 8 0 8 C-0.38063221 5.6739143 -0.71269945 3.33944736 -1 1 C-0.67 0.67 -0.34 0.34 0 0 Z " fill="#BFC6CB" transform="translate(300,142)"/>
<path d="M0 0 C2 4 2 4 1.875 6.625 C1 9 1 9 -3 11 C-2.01 7.37 -1.02 3.74 0 0 Z " fill="#D4DDE4" transform="translate(331,282)"/>
<path d="M0 0 C0.33 0.99 0.66 1.98 1 3 C0.67 3.66 0.34 4.32 0 5 C-3.0625 5.625 -3.0625 5.625 -6 6 C-6 5.34 -6 4.68 -6 4 C-4.03852126 2.61061923 -2.03833424 1.2739589 0 0 Z " fill="#334148" transform="translate(325,250)"/>
<path d="M0 0 C0.66 0.66 1.32 1.32 2 2 C0.3125 3.5625 0.3125 3.5625 -2 5 C-4.75 4.6875 -4.75 4.6875 -7 4 C-6.1028125 3.566875 -6.1028125 3.566875 -5.1875 3.125 C-2.80672208 1.95257974 -2.80672208 1.95257974 0 0 Z " fill="#2F3D41" transform="translate(288,275)"/>
<path d="M0 0 C1.32 0.66 2.64 1.32 4 2 C2.71937515 3.7074998 1.38232443 5.37373596 0 7 C-0.66 7 -1.32 7 -2 7 C-1.34 4.69 -0.68 2.38 0 0 Z " fill="#13252D" transform="translate(267,253)"/>
<path d="M0 0 C0.625 1.875 0.625 1.875 1 4 C-0.95216435 5.95216435 -2.53199953 6.84826645 -5 8 C-3.62845496 5.04590299 -2.01136276 2.55991624 0 0 Z " fill="#D9E2E8" transform="translate(323,233)"/>
<path d="M0 0 C2 3 2 3 2 5 C2.99 5.33 3.98 5.66 5 6 C2.125 5.6875 2.125 5.6875 -1 5 C-1.66 4.01 -2.32 3.02 -3 2 C-2.01 1.34 -1.02 0.68 0 0 Z " fill="#E5EDF0" transform="translate(277,296)"/>
<path d="M0 0 C1.65 1.65 3.3 3.3 5 5 C4.01 5.66 3.02 6.32 2 7 C0 4 0 4 0 0 Z " fill="#DCE5EF" transform="translate(312,99)"/>
<path d="M0 0 C1.9375 0.8125 1.9375 0.8125 4 2 C4.33 2.99 4.66 3.98 5 5 C2.69 4.34 0.38 3.68 -2 3 C-1 1 -1 1 0 0 Z " fill="#14212A" transform="translate(315,97)"/>
</svg>
